<svg xmlns="http://www.w3.org/2000/svg" xmlns:xlink="http://www.w3.org/1999/xlink" width="500" zoomAndPan="magnify" viewBox="0 0 375 374.999991" height="500" preserveAspectRatio="xMidYMid meet" version="1.0"><defs><g/></defs><g fill="#ffffff" fill-opacity="1"><g transform="translate(55.170237, 200.999987)"><g><path d="M 19.515625 -45.046875 C 21.910156 -45.046875 24.25 -44.695312 26.53125 -44 C 28.820312 -43.300781 30.523438 -42.613281 31.640625 -41.9375 L 33.25 -40.859375 L 29.171875 -32.8125 C 28.847656 -33.03125 28.398438 -33.304688 27.828125 -33.640625 C 27.253906 -33.984375 26.179688 -34.441406 24.609375 -35.015625 C 23.035156 -35.585938 21.570312 -35.875 20.21875 -35.875 C 18.539062 -35.875 17.242188 -35.515625 16.328125 -34.796875 C 15.421875 -34.085938 14.96875 -33.125 14.96875 -31.90625 C 14.96875 -31.300781 15.179688 -30.738281 15.609375 -30.21875 C 16.035156 -29.695312 16.765625 -29.140625 17.796875 -28.546875 C 18.835938 -27.960938 19.75 -27.488281 20.53125 -27.125 C 21.320312 -26.769531 22.539062 -26.238281 24.1875 -25.53125 C 27.039062 -24.3125 29.476562 -22.65625 31.5 -20.5625 C 33.519531 -18.46875 34.53125 -16.097656 34.53125 -13.453125 C 34.53125 -10.921875 34.070312 -8.707031 33.15625 -6.8125 C 32.25 -4.914062 31 -3.429688 29.40625 -2.359375 C 27.820312 -1.285156 26.0625 -0.492188 24.125 0.015625 C 22.195312 0.535156 20.109375 0.796875 17.859375 0.796875 C 15.929688 0.796875 14.035156 0.597656 12.171875 0.203125 C 10.316406 -0.179688 8.757812 -0.664062 7.5 -1.25 C 6.25 -1.84375 5.125 -2.425781 4.125 -3 C 3.125 -3.570312 2.394531 -4.054688 1.9375 -4.453125 L 1.234375 -5.046875 L 6.28125 -13.515625 C 6.707031 -13.160156 7.296875 -12.703125 8.046875 -12.140625 C 8.796875 -11.585938 10.125 -10.847656 12.03125 -9.921875 C 13.945312 -8.992188 15.640625 -8.53125 17.109375 -8.53125 C 21.359375 -8.53125 23.484375 -9.976562 23.484375 -12.875 C 23.484375 -13.476562 23.332031 -14.039062 23.03125 -14.5625 C 22.726562 -15.082031 22.191406 -15.597656 21.421875 -16.109375 C 20.648438 -16.628906 19.96875 -17.039062 19.375 -17.34375 C 18.789062 -17.644531 17.828125 -18.109375 16.484375 -18.734375 C 15.148438 -19.367188 14.160156 -19.84375 13.515625 -20.15625 C 10.828125 -21.476562 8.75 -23.128906 7.28125 -25.109375 C 5.820312 -27.097656 5.09375 -29.238281 5.09375 -31.53125 C 5.09375 -35.5 6.554688 -38.742188 9.484375 -41.265625 C 12.421875 -43.785156 15.765625 -45.046875 19.515625 -45.046875 Z M 19.515625 -45.046875 "/></g></g></g><g fill="#ffffff" fill-opacity="1"><g transform="translate(88.14886, 200.999987)"><g><path d="M 17.859375 -20.53125 C 16.066406 -20.53125 14.523438 -19.867188 13.234375 -18.546875 C 11.953125 -17.222656 11.3125 -15.632812 11.3125 -13.78125 C 11.3125 -11.882812 11.953125 -10.273438 13.234375 -8.953125 C 14.523438 -7.628906 16.066406 -6.96875 17.859375 -6.96875 C 18.710938 -6.96875 19.523438 -7.070312 20.296875 -7.28125 C 21.066406 -7.5 21.628906 -7.71875 21.984375 -7.9375 L 22.46875 -8.265625 L 25.6875 -1.65625 C 25.4375 -1.476562 25.085938 -1.253906 24.640625 -0.984375 C 24.191406 -0.722656 23.171875 -0.363281 21.578125 0.09375 C 19.992188 0.5625 18.289062 0.796875 16.46875 0.796875 C 12.425781 0.796875 8.875 -0.617188 5.8125 -3.453125 C 2.757812 -6.296875 1.234375 -9.703125 1.234375 -13.671875 C 1.234375 -17.679688 2.757812 -21.125 5.8125 -24 C 8.875 -26.875 12.425781 -28.3125 16.46875 -28.3125 C 18.289062 -28.3125 19.96875 -28.097656 21.5 -27.671875 C 23.039062 -27.242188 24.132812 -26.816406 24.78125 -26.390625 L 25.6875 -25.734375 L 22.46875 -19.25 C 21.289062 -20.101562 19.753906 -20.53125 17.859375 -20.53125 Z M 17.859375 -20.53125 "/></g></g></g><g fill="#ffffff" fill-opacity="1"><g transform="translate(111.421349, 200.999987)"><g><path d="M 3.21875 0 L 3.21875 -46.125 L 12.703125 -46.125 L 12.703125 -24.609375 L 12.8125 -24.609375 C 15.28125 -27.078125 17.910156 -28.3125 20.703125 -28.3125 C 22.054688 -28.3125 23.40625 -28.128906 24.75 -27.765625 C 26.09375 -27.410156 27.378906 -26.859375 28.609375 -26.109375 C 29.835938 -25.359375 30.835938 -24.296875 31.609375 -22.921875 C 32.378906 -21.546875 32.765625 -19.945312 32.765625 -18.125 L 32.765625 0 L 23.265625 0 L 23.265625 -15.546875 C 23.265625 -16.984375 22.804688 -18.234375 21.890625 -19.296875 C 20.984375 -20.367188 19.800781 -20.90625 18.34375 -20.90625 C 16.90625 -20.90625 15.601562 -20.351562 14.4375 -19.25 C 13.28125 -18.144531 12.703125 -16.910156 12.703125 -15.546875 L 12.703125 0 Z M 3.21875 0 "/></g></g></g><g fill="#ffffff" fill-opacity="1"><g transform="translate(143.810089, 200.999987)"><g><path d="M 3.21875 0 L 3.21875 -27.515625 L 12.703125 -27.515625 L 12.703125 -24.609375 L 12.8125 -24.609375 C 15.28125 -27.078125 17.910156 -28.3125 20.703125 -28.3125 C 22.703125 -28.3125 24.578125 -27.898438 26.328125 -27.078125 C 28.078125 -26.253906 29.398438 -24.984375 30.296875 -23.265625 C 33.085938 -26.628906 36.128906 -28.3125 39.421875 -28.3125 C 42.347656 -28.3125 44.863281 -27.488281 46.96875 -25.84375 C 49.082031 -24.195312 50.140625 -21.625 50.140625 -18.125 L 50.140625 0 L 40.640625 0 L 40.640625 -15.546875 C 40.640625 -17.015625 40.238281 -18.238281 39.4375 -19.21875 C 38.632812 -20.207031 37.429688 -20.703125 35.828125 -20.703125 C 34.429688 -20.703125 33.363281 -20.28125 32.625 -19.4375 C 31.894531 -18.59375 31.492188 -17.582031 31.421875 -16.40625 L 31.421875 0 L 21.9375 0 L 21.9375 -15.546875 C 21.9375 -17.015625 21.53125 -18.238281 20.71875 -19.21875 C 19.914062 -20.207031 18.710938 -20.703125 17.109375 -20.703125 C 15.640625 -20.703125 14.535156 -20.242188 13.796875 -19.328125 C 13.066406 -18.421875 12.703125 -17.34375 12.703125 -16.09375 L 12.703125 0 Z M 3.21875 0 "/></g></g></g><g fill="#ffffff" fill-opacity="1"><g transform="translate(193.573357, 200.999987)"><g><path d="M 5.09375 -3.40625 C 2.519531 -6.207031 1.234375 -9.644531 1.234375 -13.71875 C 1.234375 -17.800781 2.519531 -21.253906 5.09375 -24.078125 C 7.664062 -26.898438 10.9375 -28.3125 14.90625 -28.3125 C 18.550781 -28.3125 21.554688 -27.164062 23.921875 -24.875 L 23.921875 -27.515625 L 33.40625 -27.515625 L 33.40625 0 L 24.03125 0 L 24.03125 -3.109375 L 23.921875 -3.109375 C 21.554688 -0.503906 18.550781 0.796875 14.90625 0.796875 C 10.9375 0.796875 7.664062 -0.601562 5.09375 -3.40625 Z M 13.15625 -18.390625 C 11.925781 -17.171875 11.3125 -15.613281 11.3125 -13.71875 C 11.3125 -11.832031 11.898438 -10.289062 13.078125 -9.09375 C 14.265625 -7.894531 15.820312 -7.296875 17.75 -7.296875 C 19.601562 -7.296875 21.128906 -7.898438 22.328125 -9.109375 C 23.523438 -10.328125 24.125 -11.867188 24.125 -13.734375 C 24.125 -15.617188 23.507812 -17.171875 22.28125 -18.390625 C 21.050781 -19.609375 19.539062 -20.21875 17.75 -20.21875 C 15.925781 -20.21875 14.394531 -19.609375 13.15625 -18.390625 Z M 13.15625 -18.390625 "/></g></g></g><g fill="#ffffff" fill-opacity="1"><g transform="translate(227.141852, 200.999987)"><g><path d="M 3.21875 0 L 3.21875 -46.125 L 12.703125 -46.125 L 12.703125 0 Z M 3.21875 0 "/></g></g></g><g fill="#ffffff" fill-opacity="1"><g transform="translate(240.011075, 200.999987)"><g><path d="M 4.125 -42.84375 C 5.238281 -43.957031 6.5625 -44.515625 8.09375 -44.515625 C 9.632812 -44.515625 10.957031 -43.957031 12.0625 -42.84375 C 13.175781 -41.738281 13.734375 -40.414062 13.734375 -38.875 C 13.734375 -37.34375 13.175781 -36.019531 12.0625 -34.90625 C 10.957031 -33.800781 9.632812 -33.25 8.09375 -33.25 C 6.5625 -33.25 5.238281 -33.800781 4.125 -34.90625 C 3.019531 -36.019531 2.46875 -37.34375 2.46875 -38.875 C 2.46875 -40.414062 3.019531 -41.738281 4.125 -42.84375 Z M 3.21875 -27.515625 L 3.21875 0 L 12.703125 0 L 12.703125 -27.515625 Z M 3.21875 -27.515625 "/></g></g></g><g fill="#ffffff" fill-opacity="1"><g transform="translate(253.148434, 200.999987)"><g><path d="M 4.828125 -27.515625 L 4.828125 -33.359375 C 4.859375 -37.460938 5.820312 -40.75 7.71875 -43.21875 C 9.613281 -45.6875 12.242188 -46.921875 15.609375 -46.921875 C 17.035156 -46.921875 18.398438 -46.710938 19.703125 -46.296875 C 21.015625 -45.890625 21.953125 -45.472656 22.515625 -45.046875 L 23.4375 -44.453125 L 20.109375 -37.75 C 19.253906 -38.25 18.304688 -38.5 17.265625 -38.5 C 16.085938 -38.5 15.300781 -38.097656 14.90625 -37.296875 C 14.507812 -36.492188 14.3125 -35.09375 14.3125 -33.09375 L 14.3125 -27.515625 L 20.640625 -27.515625 L 20.640625 -20.265625 L 14.3125 -20.265625 L 14.3125 0 L 4.828125 0 L 4.828125 -20.265625 L 0.859375 -20.265625 L 0.859375 -27.515625 Z M 4.828125 -27.515625 "/></g></g></g><g fill="#ffffff" fill-opacity="1"><g transform="translate(270.200427, 200.999987)"><g><path d="M 24.078125 -27.515625 L 35.015625 -27.515625 L 13.40625 13.9375 L 2.46875 13.9375 L 11.953125 -4.296875 L -1.078125 -27.515625 L 9.859375 -27.515625 L 17.53125 -13.40625 Z M 24.078125 -27.515625 "/></g></g></g><g fill="#ffffff" fill-opacity="1"><g transform="translate(301.087662, 200.999987)"><g><path d="M 9.328125 -11.46875 C 11.046875 -11.46875 12.503906 -10.867188 13.703125 -9.671875 C 14.898438 -8.484375 15.5 -7.03125 15.5 -5.3125 C 15.5 -3.625 14.898438 -2.179688 13.703125 -0.984375 C 12.503906 0.203125 11.046875 0.796875 9.328125 0.796875 C 7.648438 0.796875 6.210938 0.203125 5.015625 -0.984375 C 3.816406 -2.179688 3.21875 -3.625 3.21875 -5.3125 C 3.21875 -7.03125 3.816406 -8.484375 5.015625 -9.671875 C 6.210938 -10.867188 7.648438 -11.46875 9.328125 -11.46875 Z M 9.328125 -11.46875 "/></g></g></g></svg>